<svg xmlns="http://www.w3.org/2000/svg">
 <g>
  <path stroke="#fff" d="m224.547515,330.299999c-12.691409,-5.078806 -17.759004,-19.037114 -17.759004,-19.037114s-5.717861,3.161641 -5.717861,-5.717861s5.717861,5.717861 11.435722,-28.566883c0,0 15.85305,-4.450963 12.691409,-41.258292l-3.811907,0c0,0 9.518557,-39.352339 0,-52.682803c-9.529769,-13.330465 -13.330465,-22.209967 -34.284744,-28.566883s-13.319253,-5.090018 -28.555671,-4.439751c-15.236418,0.639055 -27.939039,8.879502 -27.939039,13.319253c0,0 -9.518557,0.639055 -13.319253,4.450963c-3.811907,3.811907 -10.157612,21.570912 -10.157612,26.021874s3.172852,34.284744 6.345705,40.630449l-3.778273,1.266899c-3.172852,36.80733 12.691409,41.258292 12.691409,41.258292c5.70665,34.284744 11.424511,19.687381 11.424511,28.566883s-5.717861,5.717861 -5.717861,5.717861s-5.067595,13.958308 -17.759004,19.037114c-12.691409,5.067595 -83.144428,32.356367 -88.873501,38.074228c-5.729073,5.729073 -5.078806,32.37879 -5.078806,32.37879l302.116088,0c0,0 0.661478,-26.649718 -5.067595,-32.37879c-5.740284,-5.717861 -76.193303,-33.006634 -88.884712,-38.074228zm-139.807311,-1.928377c-1.109938,-2.018069 -1.659301,-3.475563 -1.659301,-3.475563s-4.843365,2.679547 -4.843365,-4.843365s4.843365,4.843365 9.686729,-24.205612c0,0 13.442579,-3.767061 10.751821,-34.968645l-3.22891,0c0,0 1.603243,-6.625992 2.657124,-14.956131c-0.044846,-3.45314 0.067269,-7.130509 0.414825,-11.166647l0.426037,-4.776096c-0.235441,-5.516054 -1.19963,-10.527591 -3.497986,-13.74529c-8.072275,-11.289973 -11.301184,-18.824096 -29.048977,-24.205612c-17.747793,-5.381516 -11.301184,-4.316425 -24.205612,-3.767061c-12.915639,0.538152 -23.678672,7.522911 -23.678672,11.301184c0,0 -8.072275,0.538152 -11.301184,3.767061c-3.038314,3.038314 -7.904102,16.391202 -8.4871,21.133663l0,3.150429c0.52694,7.321105 2.892565,27.456945 5.25819,32.199406l-3.206487,1.076303c-2.679547,31.201584 10.751821,34.968645 10.751821,34.968645c4.843365,29.048977 9.686729,16.682701 9.686729,24.205612s-4.843365,4.843365 -4.843365,4.843365s-4.294002,11.850548 -15.057034,16.133338c-0.683901,0.269076 -1.558397,0.627844 -2.601066,1.031457l0,58.680952l6.446608,0c-0.325133,-14.328287 0.863285,-32.816038 8.363773,-40.294104c3.991291,-3.98008 17.075103,-10.527591 71.2154,-32.087291zm250.352627,-101.531276c-0.44846,-4.237944 -1.42386,-8.016217 -3.273756,-10.606072c-8.061063,-11.301184 -11.301184,-18.824096 -29.037766,-24.205612c-17.759004,-5.381516 -11.301184,-4.316425 -24.216824,-3.767061c-12.904428,0.538152 -23.667461,7.522911 -23.667461,11.301184c0,0 -8.061063,0.538152 -11.301184,3.767061c-3.038314,3.049526 -7.948948,16.503317 -8.498311,21.200932l0.369979,0l0.896919,10.236093c0.22423,2.589855 0.246653,4.888211 0.30271,7.231413c1.009034,7.466854 2.354413,15.135515 3.699793,17.815062l-3.206487,1.076303c-2.679547,31.201584 10.763033,34.968645 10.763033,34.968645c4.843365,29.048977 9.675518,16.682701 9.675518,24.205612s-4.843365,4.843365 -4.843365,4.843365s-0.594209,1.592032 -1.827473,3.789484c53.478819,21.301836 66.450516,27.804501 70.396961,31.77337c7.5117,7.478065 8.688907,25.954605 8.363773,40.294104l5.381516,0l0,-59.488179c-0.179384,-0.067269 -0.426037,-0.168172 -0.582998,-0.235441c-10.751821,-4.294002 -15.057034,-16.133338 -15.057034,-16.133338s-4.854576,2.679547 -4.854576,-4.843365s4.854576,4.843365 9.686729,-24.205612c0,0 9.01404,-2.567432 10.796667,-20.640358l0,-13.756501c-0.011211,-0.201807 -0.011211,-0.369979 -0.033634,-0.571786l-3.240121,0c0,0 2.410471,-9.978228 3.273756,-20.864587l0,-13.184715l0.033634,0z" stroke-width="1.5" fill="#000"/>
  <path stroke="#000" id="svg_7" d="m174.482608,1.535566c-48.036302,0 -86.984297,28.4501 -86.984297,63.547521c0,20.07506 12.785642,37.961753 32.692109,49.603215c-2.832411,10.321013 -8.484954,21.752333 -19.40985,31.862876c0,0 25.501051,-1.855399 43.512839,-21.933186c1.036936,0.279565 2.110262,0.48999 3.157009,0.748135c-0.983723,-3.226596 -1.562859,-6.580833 -1.562859,-10.070823c0,-23.67954 23.984374,-42.221206 54.616935,-42.221206c22.002191,0 40.515684,9.602221 49.230689,23.770068c7.419017,-9.352103 11.731685,-20.184263 11.731685,-31.767146c0,-35.089354 -38.947988,-63.539455 -86.984255,-63.539455l-0.000006,0zm74.281006,113.763151c0,-19.468196 -21.602487,-35.262489 -48.266401,-35.262489c-26.649369,0 -48.264034,15.794293 -48.264034,35.262489c0,19.47864 21.614665,35.265064 48.264034,35.265064c5.902083,0 11.52327,-0.811994 16.749488,-2.22812c9.99197,11.146257 24.141609,12.171191 24.141609,12.171191c-6.059504,-5.611857 -9.189903,-11.953114 -10.764899,-17.684631c11.038782,-6.452891 18.140202,-16.377379 18.140202,-27.523504z" stroke-width="1.5" fill="#000000"/>
  <path d="m152.502777,22.469572c0,0.999819 0.437668,2.565163 -1.999634,3.999277c-6.273376,3.691282 -17.079559,3.693794 -24.995483,5.998917c-9.106857,2.651924 -11.997833,3.999275 -12.99765,3.999275c-0.999817,0 3.972534,-0.499592 17.99675,-0.999817c16.98613,-0.605873 36.048004,-1.319447 51.990601,0c6.060944,0.501617 6.998749,1.999638 6.998749,2.999458c0,0.999817 0.458755,3.822227 -7.998566,7.998554c-15.318939,7.564674 -26.995117,8.998375 -33.993851,10.998013l-1.999649,0.999821l1.999649,0" id="svg_8" stroke-width="1.5" stroke="#000" fill="none"/>
  <polyline stroke-linecap="round" id="svg_9" points="127.50729987558157,88.45765047829025 127.50729987558157,88.45765047829025 " stroke-width="1.5" stroke="#000" fill="none"/>
 </g>
</svg>